<?xml version="1.0" encoding="UTF-8" standalone="no"?>
<!-- Created with Inkscape (http://www.inkscape.org/) -->

<svg
   xmlns:dc="http://purl.org/dc/elements/1.1/"
   xmlns:cc="http://creativecommons.org/ns#"
   xmlns:rdf="http://www.w3.org/1999/02/22-rdf-syntax-ns#"
   xmlns:svg="http://www.w3.org/2000/svg"
   xmlns="http://www.w3.org/2000/svg"
   xmlns:xlink="http://www.w3.org/1999/xlink"
   xmlns:sodipodi="http://sodipodi.sourceforge.net/DTD/sodipodi-0.dtd"
   xmlns:inkscape="http://www.inkscape.org/namespaces/inkscape"
   width="120.15287mm"
   height="56.253719mm"
   viewBox="0 0 120.15287 56.253719"
   version="1.1"
   id="svg8"
   inkscape:version="0.92.3 (2405546, 2018-03-11)"
   sodipodi:docname="terrian_cons_logo_jp.svg">
  <defs
     id="defs2">
    <linearGradient
       inkscape:collect="always"
       id="linearGradient6049">
      <stop
         style="stop-color:#1300ed;stop-opacity:1"
         offset="0"
         id="stop6045" />
      <stop
         style="stop-color:#00edbf;stop-opacity:0;"
         offset="1"
         id="stop6047" />
    </linearGradient>
    <radialGradient
       inkscape:collect="always"
       xlink:href="#linearGradient6049"
       id="radialGradient6051"
       cx="103.94345"
       cy="42.999996"
       fx="103.94345"
       fy="42.999996"
       r="9.5714293"
       gradientTransform="matrix(1.6315742,0.02307595,-0.0242008,1.7111056,-64.607364,-32.976131)"
       gradientUnits="userSpaceOnUse" />
  </defs>
  <sodipodi:namedview
     id="base"
     pagecolor="#ffffff"
     bordercolor="#666666"
     borderopacity="1.0"
     inkscape:pageopacity="0.0"
     inkscape:pageshadow="2"
     inkscape:zoom="0.7"
     inkscape:cx="4.224883"
     inkscape:cy="122.41791"
     inkscape:document-units="mm"
     inkscape:current-layer="layer1"
     showgrid="false"
     inkscape:window-width="1920"
     inkscape:window-height="1017"
     inkscape:window-x="-8"
     inkscape:window-y="-8"
     inkscape:window-maximized="1" />
  <metadata
     id="metadata5">
    <rdf:RDF>
      <cc:Work
         rdf:about="">
        <dc:format>image/svg+xml</dc:format>
        <dc:type
           rdf:resource="http://purl.org/dc/dcmitype/StillImage" />
        <dc:title />
      </cc:Work>
    </rdf:RDF>
  </metadata>
  <g
     inkscape:label="圖層 1"
     inkscape:groupmode="layer"
     id="layer1"
     transform="translate(-44.005431,-31.983313)">
    <g
       id="g4574"
       style="fill:#00edbf;fill-opacity:1">
      <path
         style="fill:#00edbf;fill-opacity:1;stroke:#0093d3;stroke-width:1;stroke-miterlimit:4;stroke-dasharray:none;stroke-opacity:1"
         inkscape:transform-center-x="1.0714285e-006"
         d="m 113.48688,71.129976 -9.54343,-5.509901 0,-11.019804 9.54343,-5.509903 9.54343,5.509902 0,11.019804 z"
         inkscape:randomized="0"
         inkscape:rounded="0"
         inkscape:flatsided="true"
         sodipodi:arg2="2.0943951"
         sodipodi:arg1="1.5707963"
         sodipodi:r2="9.5434303"
         sodipodi:r1="11.019804"
         sodipodi:cy="60.110172"
         sodipodi:cx="113.48688"
         sodipodi:sides="6"
         id="path3715"
         sodipodi:type="star" />
      <path
         style="fill:#00edbf;fill-opacity:1;stroke:#0093d3;stroke-width:1;stroke-miterlimit:4;stroke-dasharray:none;stroke-opacity:1"
         inkscape:transform-center-x="1.0714285e-006"
         d="m 103.94345,87.659681 -9.543429,-5.509901 0,-11.019804 9.543429,-5.509903 9.54343,5.509902 0,11.019804 z"
         inkscape:randomized="0"
         inkscape:rounded="0"
         inkscape:flatsided="true"
         sodipodi:arg2="2.0943951"
         sodipodi:arg1="1.5707963"
         sodipodi:r2="9.5434303"
         sodipodi:r1="11.019804"
         sodipodi:cy="76.639877"
         sodipodi:cx="103.94345"
         sodipodi:sides="6"
         id="path3715-2"
         sodipodi:type="star" />
      <path
         style="fill:#00edbf;fill-opacity:1;stroke:#0093d3;stroke-width:1;stroke-miterlimit:4;stroke-dasharray:none;stroke-opacity:1"
         inkscape:transform-center-x="1.0714285e-006"
         d="m 94.400017,71.129976 -9.54343,-5.509901 -1e-6,-11.019804 9.54343,-5.509903 9.543434,5.509902 0,11.019804 z"
         inkscape:randomized="0"
         inkscape:rounded="0"
         inkscape:flatsided="true"
         sodipodi:arg2="2.0943951"
         sodipodi:arg1="1.5707963"
         sodipodi:r2="9.5434303"
         sodipodi:r1="11.019804"
         sodipodi:cy="60.110172"
         sodipodi:cx="94.400017"
         sodipodi:sides="6"
         id="path3715-3"
         sodipodi:type="star" />
      <path
         style="fill:#00edbf;fill-opacity:1;stroke:#0093d3;stroke-width:1;stroke-miterlimit:4;stroke-dasharray:none;stroke-opacity:1"
         inkscape:transform-center-x="1.0714285e-006"
         d="m 123.03031,54.600271 -9.54343,-5.509902 0,-11.019804 9.54343,-5.509902 9.54343,5.509902 0,11.019804 z"
         inkscape:randomized="0"
         inkscape:rounded="0"
         inkscape:flatsided="true"
         sodipodi:arg2="2.0943951"
         sodipodi:arg1="1.5707963"
         sodipodi:r2="9.5434303"
         sodipodi:r1="11.019804"
         sodipodi:cy="43.580467"
         sodipodi:cx="123.03031"
         sodipodi:sides="6"
         id="path3715-7"
         sodipodi:type="star" />
      <path
         style="fill:#00edbf;fill-opacity:1;stroke:#0093d3;stroke-width:1;stroke-miterlimit:4;stroke-dasharray:none;stroke-opacity:1"
         inkscape:transform-center-x="1.0714285e-006"
         d="m 84.856583,54.600271 -9.54343,-5.509902 -10e-7,-11.019804 9.54343,-5.509902 9.543431,5.509902 0,11.019804 z"
         inkscape:randomized="0"
         inkscape:rounded="0"
         inkscape:flatsided="true"
         sodipodi:arg2="2.0943951"
         sodipodi:arg1="1.5707963"
         sodipodi:r2="9.5434303"
         sodipodi:r1="11.019804"
         sodipodi:cy="43.580467"
         sodipodi:cx="84.856583"
         sodipodi:sides="6"
         id="path3715-26"
         sodipodi:type="star" />
      <path
         style="fill:#00edbf;fill-opacity:1;stroke:#0093d3;stroke-width:1;stroke-miterlimit:4;stroke-dasharray:none;stroke-opacity:1"
         inkscape:transform-center-x="1.0714285e-006"
         d="m 142.11717,54.600271 -9.54343,-5.509902 0,-11.019804 9.54343,-5.509902 9.54343,5.509902 0,11.019804 z"
         inkscape:randomized="0"
         inkscape:rounded="0"
         inkscape:flatsided="true"
         sodipodi:arg2="2.0943951"
         sodipodi:arg1="1.5707963"
         sodipodi:r2="9.5434303"
         sodipodi:r1="11.019804"
         sodipodi:cy="43.580467"
         sodipodi:cx="142.11717"
         sodipodi:sides="6"
         id="path3715-35"
         sodipodi:type="star" />
      <path
         style="fill:#00edbf;fill-opacity:1;stroke:#0093d3;stroke-width:1;stroke-miterlimit:4;stroke-dasharray:none;stroke-opacity:1"
         inkscape:transform-center-x="1.0714285e-006"
         d="m 65.769722,54.600271 -9.54343,-5.509902 0,-11.019804 9.54343,-5.509902 9.54343,5.509902 0,11.019804 z"
         inkscape:randomized="0"
         inkscape:rounded="0"
         inkscape:flatsided="true"
         sodipodi:arg2="2.0943951"
         sodipodi:arg1="1.5707963"
         sodipodi:r2="9.5434303"
         sodipodi:r1="11.019804"
         sodipodi:cy="43.580467"
         sodipodi:cx="65.769722"
         sodipodi:sides="6"
         id="path3715-37"
         sodipodi:type="star" />
    </g>
    <ellipse
       style="fill:url(#radialGradient6051);fill-opacity:1;stroke:#f0c21e;stroke-width:0.57603455;stroke-miterlimit:4;stroke-dasharray:none;stroke-opacity:1"
       id="path6043"
       cx="103.94345"
       cy="42.999996"
       rx="9.283412"
       ry="9.6613865" />
    <g
       aria-label="地球のこころ"
       style="font-style:normal;font-variant:normal;font-weight:bold;font-stretch:normal;font-size:12.69999981px;line-height:1.25;font-family:Meiryo;-inkscape-font-specification:'Meiryo Bold';letter-spacing:0px;word-spacing:0px;fill:#000000;fill-opacity:1;stroke:none;stroke-width:0.26458332"
       id="text994">
      <path
         d="m 79.340294,63.550165 q 0,0.37207 -0.186035,0.657324 -0.186036,0.285254 -0.520899,0.452686 -0.328662,0.173632 -0.719336,0.210839 -0.384472,0.03721 -1.159619,0.06201 -0.775146,0.02481 -1.407666,0.02481 -0.700732,0 -1.438672,-0.04341 -0.737939,-0.03721 -1.010791,-0.09922 -0.272851,-0.05581 -0.533301,-0.248047 -0.254248,-0.186035 -0.403076,-0.465088 -0.148828,-0.279053 -0.148828,-0.626318 v -5.047754 l -0.632519,0.155029 -0.148828,-0.824756 h -0.855762 v 3.578076 q 0.63872,-0.186035 1.190625,-0.365869 l 0.09302,1.358057 q -0.806152,0.403076 -3.987353,1.27124 l -0.310059,-1.53789 q 0.626319,-0.117823 1.37666,-0.297657 V 57.75827 h -1.097607 v -1.296045 h 1.097607 v -2.573486 h 1.63711 v 2.573486 h 0.89917 v 0.626319 l 0.737939,-0.186035 v -2.492871 h 1.63711 v 2.089794 l 1.029394,-0.260449 v -2.38125 h 1.624707 v 1.978174 l 2.387451,-0.589111 0.446485,0.328662 v 4.799707 q 0,0.595312 -0.390674,0.948779 -0.390674,0.347266 -1.047998,0.347266 h -0.973584 l -0.204639,-1.432471 h 0.657324 q 0.347266,0 0.347266,-0.279053 v -2.908349 l -1.221631,0.303857 v 5.39502 H 74.478575 V 57.75827 l -1.029394,0.26045 v 4.973339 q 0,0.353467 0.384472,0.446485 0.824756,0.04961 1.599902,0.04961 0.514698,0 1.203028,-0.0124 l 0.837158,-0.02481 q 0.148828,-0.0124 0.241846,-0.08682 0.09922,-0.08062 0.130224,-0.235645 0.03721,-0.16123 0.08682,-1.314648 l 1.407666,0.186035 z"
         style="font-style:normal;font-variant:normal;font-weight:bold;font-stretch:normal;font-size:12.69999981px;font-family:Meiryo;-inkscape-font-specification:'Meiryo Bold';stroke-width:0.26458332"
         id="path996" />
      <path
         d="m 87.079356,62.1487 q -1.568896,1.203027 -2.833935,1.860352 l -0.68833,-1.308448 q 1.717724,-0.775146 3.522265,-2.282031 v -3.013769 h -2.883545 v -1.32085 h 2.883545 v -2.263428 h 1.674316 v 2.263428 h 1.562696 q -0.266651,-0.359668 -1.27124,-1.624707 l 1.128613,-0.651123 q 0.508496,0.452685 1.53789,1.85415 l -0.694531,0.42168 h 0.923975 v 1.32085 h -3.187403 v 0.471289 q 0.235645,0.731738 0.657325,1.525488 0.787548,-0.824756 1.401464,-1.655713 l 1.271241,0.979785 q -0.570508,0.73794 -1.934766,1.872754 1.0604,1.513086 2.226221,2.536279 l -1.054199,1.32085 q -1.537891,-1.494483 -2.567286,-3.392041 v 2.840137 q 0,0.5333 -0.415478,0.84956 -0.409277,0.322461 -0.992188,0.322461 h -1.575097 l -0.179834,-1.463476 h 1.141015 q 0.347266,0 0.347266,-0.31626 z m -2.616894,-0.06821 q -0.378272,0.192236 -1.711524,0.595313 -1.327051,0.403076 -2.430859,0.669726 L 79.966612,61.93786 Q 80.53712,61.807636 81.4921,61.547186 V 58.992304 H 80.295274 V 57.708661 H 81.4921 v -1.996777 h -1.196826 v -1.277442 h 3.950147 v 1.277442 h -1.128614 v 1.996777 h 1.029395 v 1.283643 H 83.116807 V 61.0883 l 1.190625,-0.359668 z m 2.220019,-1.885156 -1.296045,0.713135 q -0.514697,-1.389063 -1.215429,-2.654102 l 1.308447,-0.632519 q 0.204638,0.328662 0.632519,1.258837 0.434082,0.923975 0.570508,1.314649 z"
         style="font-style:normal;font-variant:normal;font-weight:bold;font-stretch:normal;font-size:12.69999981px;font-family:Meiryo;-inkscape-font-specification:'Meiryo Bold';stroke-width:0.26458332"
         id="path998" />
      <path
         d="m 98.470909,64.995038 -0.458887,-1.550293 q 2.461868,-0.272852 3.702098,-1.134815 1.24024,-0.861962 1.24024,-2.573486 0,-1.432471 -0.89297,-2.294433 -0.89297,-0.868164 -2.47427,-1.016993 -0.130225,3.472657 -1.302247,5.630664 -1.16582,2.151807 -2.939355,2.151807 -1.153418,0 -1.866553,-1.085205 -0.713134,-1.091406 -0.713134,-2.492871 v -0.155029 q 0,-2.145606 1.723925,-3.795118 1.730127,-1.655712 4.359424,-1.779736 h 0.254248 q 2.511472,0 4.123782,1.277442 1.6185,1.27124 1.6185,3.460253 0,2.399854 -1.6309,3.757911 -1.62471,1.358056 -4.743901,1.599902 z M 97.84459,56.604852 q -1.395263,0.328663 -2.375048,1.463477 -0.973584,1.134814 -0.973584,2.505273 0,0.706934 0.241845,1.302246 0.241846,0.595313 0.675928,0.595313 0.874365,0 1.5875,-1.699121 0.713135,-1.699121 0.843359,-4.167188 z"
         style="font-style:normal;font-variant:normal;font-weight:bold;font-stretch:normal;font-size:12.69999981px;font-family:Meiryo;-inkscape-font-specification:'Meiryo Bold';stroke-width:0.26458332"
         id="path1000" />
      <path
         d="m 116.20006,56.679266 q -0.40308,0.06821 -0.89917,0.235645 -0.48989,0.16123 -0.80615,0.303857 -0.31626,0.142627 -2.34405,1.134815 l -0.76274,-1.091406 q 0.23564,-0.09922 1.43867,-0.669727 -1.83555,0.0186 -5.51284,0.148828 l -0.0496,-1.53789 q 1.76113,-0.06201 6.70967,-0.06201 1.14101,0 1.64951,0.0062 z m 0.45888,7.875489 q -2.46806,0.297656 -4.44003,0.297656 -3.29283,0 -4.53926,-0.657324 -1.24644,-0.657325 -1.24644,-1.940967 0,-1.618506 1.71773,-2.920752 l 1.23403,0.923975 q -1.17822,1.122412 -1.17822,1.841748 0,0.217041 0.0744,0.390673 0.0744,0.167432 0.35967,0.341065 0.29145,0.173633 1.0542,0.285254 0.76274,0.111621 1.93476,0.117822 h 0.45269 q 2.05259,0 4.30361,-0.334863 z"
         style="font-style:normal;font-variant:normal;font-weight:bold;font-stretch:normal;font-size:12.69999981px;font-family:Meiryo;-inkscape-font-specification:'Meiryo Bold';stroke-width:0.26458332"
         id="path1002" />
      <path
         d="m 128.90006,56.679266 q -0.40308,0.06821 -0.89917,0.235645 -0.48989,0.16123 -0.80615,0.303857 -0.31626,0.142627 -2.34405,1.134815 l -0.76274,-1.091406 q 0.23564,-0.09922 1.43867,-0.669727 -1.83555,0.0186 -5.51284,0.148828 l -0.0496,-1.53789 q 1.76113,-0.06201 6.70967,-0.06201 1.14101,0 1.64951,0.0062 z m 0.45889,7.875489 q -2.46807,0.297656 -4.44004,0.297656 -3.29283,0 -4.53926,-0.657324 -1.24644,-0.657325 -1.24644,-1.940967 0,-1.618506 1.71773,-2.920752 l 1.23403,0.923975 q -1.17822,1.122412 -1.17822,1.841748 0,0.217041 0.0744,0.390673 0.0744,0.167432 0.35967,0.341065 0.29146,0.173633 1.0542,0.285254 0.76274,0.111621 1.93476,0.117822 h 0.45269 q 2.05259,0 4.30361,-0.334863 z"
         style="font-style:normal;font-variant:normal;font-weight:bold;font-stretch:normal;font-size:12.69999981px;font-family:Meiryo;-inkscape-font-specification:'Meiryo Bold';stroke-width:0.26458332"
         id="path1004" />
      <path
         d="m 133.53233,64.833807 0.13023,-1.53789 q 1.24643,0.26665 2.18281,0.26665 2.35645,0 3.36724,-0.589111 1.01699,-0.595313 1.01699,-1.581299 0,-1.829346 -2.54248,-1.829346 -1.15962,0 -2.38125,0.489893 -1.22163,0.489892 -3.09438,1.897558 l -1.06661,-1.27124 q 1.33326,-0.936377 6.37481,-4.632275 h -4.92373 v -1.488281 h 7.45381 l 0.71313,1.016992 q -0.70693,0.576709 -3.80132,2.728515 0.44029,-0.09302 1.25884,-0.09302 1.30225,0 2.127,0.415478 0.82476,0.409278 1.27124,1.103809 0.45269,0.694531 0.45269,1.637109 0,1.686719 -1.46348,2.722315 -1.45727,1.035595 -4.57646,1.035595 -0.94258,0 -2.49908,-0.291455 z"
         style="font-style:normal;font-variant:normal;font-weight:bold;font-stretch:normal;font-size:12.69999981px;font-family:Meiryo;-inkscape-font-specification:'Meiryo Bold';stroke-width:0.26458332"
         id="path1006" />
    </g>
  </g>
</svg>
