<?xml version="1.0" encoding="UTF-8" standalone="no"?>
<!-- Created with Inkscape (http://www.inkscape.org/) -->

<svg
   xmlns:dc="http://purl.org/dc/elements/1.1/"
   xmlns:cc="http://creativecommons.org/ns#"
   xmlns:rdf="http://www.w3.org/1999/02/22-rdf-syntax-ns#"
   xmlns:svg="http://www.w3.org/2000/svg"
   xmlns="http://www.w3.org/2000/svg"
   xmlns:xlink="http://www.w3.org/1999/xlink"
   xmlns:sodipodi="http://sodipodi.sourceforge.net/DTD/sodipodi-0.dtd"
   xmlns:inkscape="http://www.inkscape.org/namespaces/inkscape"
   width="120.15287mm"
   height="56.253719mm"
   viewBox="0 0 120.15287 56.253719"
   version="1.1"
   id="svg8"
   inkscape:version="0.92.3 (2405546, 2018-03-11)"
   sodipodi:docname="terrian_cons_logo.svg">
  <defs
     id="defs2">
    <linearGradient
       inkscape:collect="always"
       id="linearGradient6049">
      <stop
         style="stop-color:#1300ed;stop-opacity:1"
         offset="0"
         id="stop6045" />
      <stop
         style="stop-color:#00edbf;stop-opacity:0;"
         offset="1"
         id="stop6047" />
    </linearGradient>
    <radialGradient
       inkscape:collect="always"
       xlink:href="#linearGradient6049"
       id="radialGradient6051"
       cx="103.94345"
       cy="42.999996"
       fx="103.94345"
       fy="42.999996"
       r="9.5714293"
       gradientTransform="matrix(1.6315742,0.02307595,-0.0242008,1.7111056,-64.607364,-32.976131)"
       gradientUnits="userSpaceOnUse" />
  </defs>
  <sodipodi:namedview
     id="base"
     pagecolor="#ffffff"
     bordercolor="#666666"
     borderopacity="1.0"
     inkscape:pageopacity="0.0"
     inkscape:pageshadow="2"
     inkscape:zoom="0.7"
     inkscape:cx="4.224883"
     inkscape:cy="122.41791"
     inkscape:document-units="mm"
     inkscape:current-layer="layer1"
     showgrid="false"
     inkscape:window-width="1920"
     inkscape:window-height="1017"
     inkscape:window-x="-8"
     inkscape:window-y="-8"
     inkscape:window-maximized="1" />
  <metadata
     id="metadata5">
    <rdf:RDF>
      <cc:Work
         rdf:about="">
        <dc:format>image/svg+xml</dc:format>
        <dc:type
           rdf:resource="http://purl.org/dc/dcmitype/StillImage" />
        <dc:title></dc:title>
      </cc:Work>
    </rdf:RDF>
  </metadata>
  <g
     inkscape:label="圖層 1"
     inkscape:groupmode="layer"
     id="layer1"
     transform="translate(-44.005431,-31.983313)">
    <g
       id="g4574"
       style="fill:#00edbf;fill-opacity:1">
      <path
         style="fill:#00edbf;fill-opacity:1;stroke:#0093d3;stroke-width:1;stroke-miterlimit:4;stroke-dasharray:none;stroke-opacity:1"
         inkscape:transform-center-x="1.0714285e-006"
         d="m 113.48688,71.129976 -9.54343,-5.509901 0,-11.019804 9.54343,-5.509903 9.54343,5.509902 0,11.019804 z"
         inkscape:randomized="0"
         inkscape:rounded="0"
         inkscape:flatsided="true"
         sodipodi:arg2="2.0943951"
         sodipodi:arg1="1.5707963"
         sodipodi:r2="9.5434303"
         sodipodi:r1="11.019804"
         sodipodi:cy="60.110172"
         sodipodi:cx="113.48688"
         sodipodi:sides="6"
         id="path3715"
         sodipodi:type="star" />
      <path
         style="fill:#00edbf;fill-opacity:1;stroke:#0093d3;stroke-width:1;stroke-miterlimit:4;stroke-dasharray:none;stroke-opacity:1"
         inkscape:transform-center-x="1.0714285e-006"
         d="m 103.94345,87.659681 -9.543429,-5.509901 0,-11.019804 9.543429,-5.509903 9.54343,5.509902 0,11.019804 z"
         inkscape:randomized="0"
         inkscape:rounded="0"
         inkscape:flatsided="true"
         sodipodi:arg2="2.0943951"
         sodipodi:arg1="1.5707963"
         sodipodi:r2="9.5434303"
         sodipodi:r1="11.019804"
         sodipodi:cy="76.639877"
         sodipodi:cx="103.94345"
         sodipodi:sides="6"
         id="path3715-2"
         sodipodi:type="star" />
      <path
         style="fill:#00edbf;fill-opacity:1;stroke:#0093d3;stroke-width:1;stroke-miterlimit:4;stroke-dasharray:none;stroke-opacity:1"
         inkscape:transform-center-x="1.0714285e-006"
         d="m 94.400017,71.129976 -9.54343,-5.509901 -1e-6,-11.019804 9.54343,-5.509903 9.543434,5.509902 0,11.019804 z"
         inkscape:randomized="0"
         inkscape:rounded="0"
         inkscape:flatsided="true"
         sodipodi:arg2="2.0943951"
         sodipodi:arg1="1.5707963"
         sodipodi:r2="9.5434303"
         sodipodi:r1="11.019804"
         sodipodi:cy="60.110172"
         sodipodi:cx="94.400017"
         sodipodi:sides="6"
         id="path3715-3"
         sodipodi:type="star" />
      <path
         style="fill:#00edbf;fill-opacity:1;stroke:#0093d3;stroke-width:1;stroke-miterlimit:4;stroke-dasharray:none;stroke-opacity:1"
         inkscape:transform-center-x="1.0714285e-006"
         d="m 123.03031,54.600271 -9.54343,-5.509902 0,-11.019804 9.54343,-5.509902 9.54343,5.509902 0,11.019804 z"
         inkscape:randomized="0"
         inkscape:rounded="0"
         inkscape:flatsided="true"
         sodipodi:arg2="2.0943951"
         sodipodi:arg1="1.5707963"
         sodipodi:r2="9.5434303"
         sodipodi:r1="11.019804"
         sodipodi:cy="43.580467"
         sodipodi:cx="123.03031"
         sodipodi:sides="6"
         id="path3715-7"
         sodipodi:type="star" />
      <path
         style="fill:#00edbf;fill-opacity:1;stroke:#0093d3;stroke-width:1;stroke-miterlimit:4;stroke-dasharray:none;stroke-opacity:1"
         inkscape:transform-center-x="1.0714285e-006"
         d="m 84.856583,54.600271 -9.54343,-5.509902 -10e-7,-11.019804 9.54343,-5.509902 9.543431,5.509902 0,11.019804 z"
         inkscape:randomized="0"
         inkscape:rounded="0"
         inkscape:flatsided="true"
         sodipodi:arg2="2.0943951"
         sodipodi:arg1="1.5707963"
         sodipodi:r2="9.5434303"
         sodipodi:r1="11.019804"
         sodipodi:cy="43.580467"
         sodipodi:cx="84.856583"
         sodipodi:sides="6"
         id="path3715-26"
         sodipodi:type="star" />
      <path
         style="fill:#00edbf;fill-opacity:1;stroke:#0093d3;stroke-width:1;stroke-miterlimit:4;stroke-dasharray:none;stroke-opacity:1"
         inkscape:transform-center-x="1.0714285e-006"
         d="m 142.11717,54.600271 -9.54343,-5.509902 0,-11.019804 9.54343,-5.509902 9.54343,5.509902 0,11.019804 z"
         inkscape:randomized="0"
         inkscape:rounded="0"
         inkscape:flatsided="true"
         sodipodi:arg2="2.0943951"
         sodipodi:arg1="1.5707963"
         sodipodi:r2="9.5434303"
         sodipodi:r1="11.019804"
         sodipodi:cy="43.580467"
         sodipodi:cx="142.11717"
         sodipodi:sides="6"
         id="path3715-35"
         sodipodi:type="star" />
      <path
         style="fill:#00edbf;fill-opacity:1;stroke:#0093d3;stroke-width:1;stroke-miterlimit:4;stroke-dasharray:none;stroke-opacity:1"
         inkscape:transform-center-x="1.0714285e-006"
         d="m 65.769722,54.600271 -9.54343,-5.509902 0,-11.019804 9.54343,-5.509902 9.54343,5.509902 0,11.019804 z"
         inkscape:randomized="0"
         inkscape:rounded="0"
         inkscape:flatsided="true"
         sodipodi:arg2="2.0943951"
         sodipodi:arg1="1.5707963"
         sodipodi:r2="9.5434303"
         sodipodi:r1="11.019804"
         sodipodi:cy="43.580467"
         sodipodi:cx="65.769722"
         sodipodi:sides="6"
         id="path3715-37"
         sodipodi:type="star" />
    </g>
    <ellipse
       style="fill:url(#radialGradient6051);fill-opacity:1;stroke:#f0c21e;stroke-width:0.57603455;stroke-miterlimit:4;stroke-dasharray:none;stroke-opacity:1"
       id="path6043"
       cx="103.94345"
       cy="42.999996"
       rx="9.283412"
       ry="9.6613865" />
    <g
       aria-label="Terrian Consciousness"
       style="font-style:normal;font-variant:normal;font-weight:normal;font-stretch:normal;font-size:10.58333302px;line-height:1.25;font-family:'Bodoni MT Black';-inkscape-font-specification:'Bodoni MT Black, ';letter-spacing:0px;word-spacing:0px;fill:#000000;fill-opacity:1;stroke:none;stroke-width:0.26458332"
       id="text6055">
      <path
         d="m 51.410663,55.870382 h -0.28422 q -0.217041,-0.992188 -0.666626,-1.498617 -0.449585,-0.506429 -1.27124,-0.671793 v 6.444051 h 0.89917 v 0.242879 h -4.769735 v -0.242879 h 0.89917 v -6.444051 q -0.821655,0.165364 -1.27124,0.671793 -0.449585,0.506429 -0.666626,1.498617 h -0.273885 v -2.41329 h 7.405232 z"
         style="stroke-width:0.26458332"
         id="path6057"
         inkscape:connector-curvature="0" />
      <path
         d="M 56.562803,58.216492 H 53.80845 v 0.91984 q 0,0.43925 0.05168,0.625285 0.05168,0.186035 0.201538,0.304891 0.149862,0.118856 0.37207,0.118856 0.465088,0 0.971517,-0.310059 0.511597,-0.310058 0.904338,-0.842326 l 0.165364,0.180868 q -0.997355,1.312581 -2.413289,1.312581 -1.173055,0 -1.958537,-0.625285 -0.780314,-0.630452 -0.780314,-1.55546 0,-0.992188 0.795817,-1.658814 0.800985,-0.671793 1.999878,-0.671793 0.935343,0 1.612305,0.594279 0.682129,0.589111 0.83199,1.607137 z m -1.777669,-0.211874 v -1.224731 q 0,-0.563273 -0.465088,-0.563273 -0.511596,0 -0.511596,0.563273 v 1.224731 z"
         style="stroke-width:0.26458332"
         id="path6059"
         inkscape:connector-curvature="0" />
      <path
         d="m 59.875263,57.126119 q 0.666626,-1.059367 1.364258,-1.059367 0.387573,0 0.614949,0.237712 0.232544,0.237711 0.232544,0.640788 0,0.423746 -0.273885,0.713134 -0.268717,0.284221 -0.666626,0.284221 -0.37207,0 -0.61495,-0.232544 -0.242879,-0.237712 -0.242879,-0.594279 0,-0.124024 0.03101,-0.191203 l -0.02067,-0.02067 q -0.186036,0.1757 -0.315227,0.434082 -0.129191,0.258383 -0.129191,0.361735 v 2.475301 h 0.687297 v 0.211874 h -3.694865 v -0.211874 h 0.656291 V 56.299296 H 56.847024 V 56.09259 h 1.725993 q 0.775146,0 1.281575,-0.139526 v 1.173055 z"
         style="stroke-width:0.26458332"
         id="path6061"
         inkscape:connector-curvature="0" />
      <path
         d="m 65.394305,57.126119 q 0.666626,-1.059367 1.364258,-1.059367 0.387573,0 0.614949,0.237712 0.232544,0.237711 0.232544,0.640788 0,0.423746 -0.273885,0.713134 -0.268717,0.284221 -0.666626,0.284221 -0.37207,0 -0.61495,-0.232544 -0.242879,-0.237712 -0.242879,-0.594279 0,-0.124024 0.03101,-0.191203 l -0.02067,-0.02067 q -0.186036,0.1757 -0.315227,0.434082 -0.129191,0.258383 -0.129191,0.361735 v 2.475301 h 0.687297 v 0.211874 H 62.36607 v -0.211874 h 0.656291 V 56.299296 H 62.366066 V 56.09259 h 1.725993 q 0.775146,0 1.281575,-0.139526 v 1.173055 z"
         style="stroke-width:0.26458332"
         id="path6063"
         inkscape:connector-curvature="0" />
      <path
         d="m 69.962501,53.327901 q 0.434082,0 0.682129,0.217041 0.248047,0.211874 0.248047,0.589112 0,0.382405 -0.428914,0.682129 -0.423747,0.299723 -0.992188,0.299723 -0.423746,0 -0.682129,-0.206706 -0.258382,-0.206706 -0.258382,-0.542602 0,-0.423747 0.418579,-0.728638 0.423747,-0.310059 1.012858,-0.310059 z m 1.669149,7.059001 h -3.736206 v -0.211874 h 0.7028 v -3.875732 h -0.7028 V 56.09259 h 1.746664 q 0.661458,0 1.302246,-0.139526 v 4.221964 h 0.687296 z"
         style="stroke-width:0.26458332"
         id="path6065"
         inkscape:connector-curvature="0" />
      <path
         d="m 77.920672,59.560079 q -0.470256,0.966349 -1.720825,0.966349 -0.682129,0 -1.147217,-0.454752 -0.72347,0.454752 -1.44694,0.454752 -0.749308,0 -1.240234,-0.3514 -0.485759,-0.356567 -0.485759,-0.888834 0,-0.604614 0.511597,-0.945679 0.511596,-0.346232 1.405599,-0.346232 0.687296,0 1.204061,0.170532 v -1.028361 q 0,-0.418579 -0.103353,-0.56844 -0.103353,-0.15503 -0.315227,-0.232544 -0.211873,-0.07751 -0.470255,-0.07751 -0.325562,0 -0.485758,0.07751 0.558105,0.165364 0.558105,0.738973 0,0.382405 -0.227376,0.609782 -0.227377,0.227376 -0.604615,0.227376 -0.397908,0 -0.645955,-0.232544 -0.242879,-0.232544 -0.242879,-0.604614 0,-0.506429 0.490926,-0.780314 0.496094,-0.279053 1.400431,-0.279053 0.961182,0 1.576131,0.134359 0.61495,0.134358 0.904338,0.341064 0.289388,0.201538 0.397908,0.428914 0.108521,0.222209 0.108521,0.692465 v 1.948201 q 0,0.160197 0.01033,0.211873 0.0155,0.05168 0.07235,0.05168 0.09819,0 0.310059,-0.356568 z m -2.919718,0.320394 v -1.483114 q -0.33073,-0.129191 -0.516765,-0.129191 -0.206705,0 -0.294555,0.103353 -0.08785,0.103353 -0.08785,0.341064 v 0.956014 q 0,0.434082 0.315226,0.434082 0.186035,0 0.583944,-0.222208 z"
         style="stroke-width:0.26458332"
         id="path6067"
         inkscape:connector-curvature="0" />
      <path
         d="m 84.917662,60.386902 h -3.358968 v -0.211874 h 0.361735 V 57.14679 q 0,-0.537435 -0.315226,-0.537435 -0.253215,0 -0.583944,0.294555 v 3.271118 h 0.361735 v 0.211874 h -3.369303 v -0.211874 h 0.656291 V 56.299296 H 78.013691 V 56.09259 h 1.968872 q 0.485758,0 1.038696,-0.139526 v 0.697632 q 0.868164,-0.63562 1.746664,-0.63562 0.609781,0 1.054199,0.304891 0.449585,0.304891 0.449585,1.069702 v 2.785359 h 0.645955 z"
         style="stroke-width:0.26458332"
         id="path6069"
         inkscape:connector-curvature="0" />
      <path
         d="m 95.402809,59.167338 q -0.599447,0.764811 -1.240234,1.100708 -0.640788,0.330729 -1.591634,0.330729 -1.658814,0 -2.723348,-1.028361 -1.059367,-1.028361 -1.059367,-2.656168 0,-1.669149 1.038696,-2.671672 1.043864,-1.00769 2.71818,-1.00769 1.080038,0 1.756999,0.558105 l 1.059367,-0.54777 v 2.868042 h -0.242879 q 0,-0.754476 -0.382406,-1.343587 -0.382406,-0.589111 -0.904338,-0.89917 -0.516764,-0.310059 -1.038696,-0.310059 -0.253214,0 -0.418579,0.124024 -0.165364,0.118856 -0.206706,0.315226 -0.04134,0.19637 -0.04134,0.599447 v 4.568196 q 0,0.594279 0.186035,0.857829 0.186036,0.258382 0.625285,0.258382 1.240235,0 2.222087,-1.281575 z"
         style="stroke-width:0.26458332"
         id="path6071"
         inkscape:connector-curvature="0" />
      <path
         d="m 98.921974,56.015076 q 1.369426,0 2.170406,0.645955 0.80616,0.645956 0.80616,1.725993 0,0.976685 -0.81132,1.560628 -0.80616,0.578776 -2.175581,0.578776 -1.33842,0 -2.14974,-0.599446 -0.81132,-0.604615 -0.81132,-1.581299 0,-1.049032 0.81132,-1.689819 0.81132,-0.640788 2.160075,-0.640788 z m 0.480591,3.643188 v -2.795695 q 0,-0.37207 -0.103353,-0.511596 -0.103353,-0.144694 -0.377238,-0.144694 -0.268717,0 -0.377238,0.160197 -0.10852,0.155029 -0.10852,0.537434 v 2.754354 q 0,0.361735 0.09819,0.511597 0.103353,0.144694 0.346232,0.144694 0.289388,0 0.403076,-0.149862 0.118856,-0.149861 0.118856,-0.506429 z"
         style="stroke-width:0.26458332"
         id="path6073"
         inkscape:connector-curvature="0" />
      <path
         d="m 109.08156,60.386902 h -3.35897 v -0.211874 h 0.36174 V 57.14679 q 0,-0.537435 -0.31523,-0.537435 -0.25321,0 -0.58394,0.294555 v 3.271118 h 0.36173 v 0.211874 h -3.3693 v -0.211874 h 0.65629 v -3.875732 h -0.65629 V 56.09259 h 1.96887 q 0.48576,0 1.0387,-0.139526 v 0.697632 q 0.86816,-0.63562 1.74666,-0.63562 0.60978,0 1.0542,0.304891 0.44959,0.304891 0.44959,1.069702 v 2.785359 h 0.64595 z"
         style="stroke-width:0.26458332"
         id="path6075"
         inkscape:connector-curvature="0" />
      <path
         d="m 113.55674,57.741069 q -0.11369,-0.795817 -0.71314,-1.157552 -0.59944,-0.366903 -1.20406,-0.366903 -0.1757,0 -0.28422,0.07751 -0.10852,0.07235 -0.10852,0.186035 0,0.129191 0.11369,0.222208 0.11369,0.08785 0.34623,0.201538 0.97669,0.496094 1.33842,0.707968 0.36174,0.206705 0.55811,0.382405 0.19637,0.170532 0.29972,0.434082 0.10852,0.26355 0.10852,0.563273 0,0.697632 -0.55294,1.116211 -0.55293,0.418579 -1.48828,0.418579 -1.07487,0 -1.85518,-0.501261 l -0.67696,0.532267 v -1.979207 h 0.22221 q 0.0672,0.733805 0.64595,1.173055 0.58394,0.434082 1.43144,0.434082 0.46509,0 0.46509,-0.346232 0,-0.144694 -0.0982,-0.232544 -0.093,-0.09302 -0.3359,-0.170532 -1.2764,-0.43925 -1.788,-0.89917 -0.5116,-0.465088 -0.5116,-1.007691 0,-0.713135 0.56328,-1.173055 0.56844,-0.465088 1.4366,-0.465088 0.72347,0 1.51412,0.434082 l 0.79582,-0.470255 v 1.88619 z"
         style="stroke-width:0.26458332"
         id="path6077"
         inkscape:connector-curvature="0" />
      <path
         d="m 119.15847,59.508403 q -0.37724,0.537434 -0.863,0.780314 -0.48059,0.237711 -1.17822,0.237711 -1.2144,0 -1.94304,-0.604614 -0.72347,-0.604614 -0.72347,-1.596802 0,-1.002522 0.80099,-1.653646 0.80615,-0.65629 2.04638,-0.65629 0.84233,0 1.31259,0.325561 0.47542,0.325562 0.47542,0.894003 0,0.361735 -0.23254,0.594279 -0.23255,0.227376 -0.60462,0.227376 -0.37207,0 -0.61495,-0.222209 -0.24288,-0.222208 -0.24288,-0.568441 0,-0.341064 0.21188,-0.578776 0.21187,-0.237711 0.51159,-0.237711 0.14986,0 0.26355,0.03101 l 0.0207,-0.02067 q -0.26871,-0.222209 -0.8785,-0.222209 -0.33073,0 -0.45475,0.134359 -0.11886,0.134359 -0.11886,0.490926 v 2.526978 q 0,0.485758 0.12403,0.661458 0.12402,0.1757 0.50126,0.1757 0.36173,0 0.73381,-0.217041 0.37723,-0.222209 0.66662,-0.620117 z"
         style="stroke-width:0.26458332"
         id="path6079"
         inkscape:connector-curvature="0" />
      <path
         d="m 121.39089,53.327901 q 0.43408,0 0.68213,0.217041 0.24804,0.211874 0.24804,0.589112 0,0.382405 -0.42891,0.682129 -0.42375,0.299723 -0.99219,0.299723 -0.42374,0 -0.68213,-0.206706 -0.25838,-0.206706 -0.25838,-0.542602 0,-0.423747 0.41858,-0.728638 0.42375,-0.310059 1.01286,-0.310059 z m 1.66915,7.059001 h -3.73621 v -0.211874 h 0.7028 v -3.875732 h -0.7028 V 56.09259 h 1.74666 q 0.66146,0 1.30225,-0.139526 v 4.221964 h 0.6873 z"
         style="stroke-width:0.26458332"
         id="path6081"
         inkscape:connector-curvature="0" />
      <path
         d="m 126.28981,56.015076 q 1.36943,0 2.17041,0.645955 0.80616,0.645956 0.80616,1.725993 0,0.976685 -0.81132,1.560628 -0.80616,0.578776 -2.17558,0.578776 -1.33842,0 -2.14974,-0.599446 -0.81132,-0.604615 -0.81132,-1.581299 0,-1.049032 0.81132,-1.689819 0.81132,-0.640788 2.16007,-0.640788 z m 0.48059,3.643188 v -2.795695 q 0,-0.37207 -0.10335,-0.511596 -0.10335,-0.144694 -0.37724,-0.144694 -0.26871,0 -0.37723,0.160197 -0.10852,0.155029 -0.10852,0.537434 v 2.754354 q 0,0.361735 0.0982,0.511597 0.10335,0.144694 0.34623,0.144694 0.28939,0 0.40308,-0.149862 0.11885,-0.149861 0.11885,-0.506429 z"
         style="stroke-width:0.26458332"
         id="path6083"
         inkscape:connector-curvature="0" />
      <path
         d="m 136.29954,60.386902 h -2.94039 v -0.54777 q -0.863,0.687296 -1.77767,0.687296 -0.56844,0 -0.99219,-0.253214 -0.41858,-0.258382 -0.41858,-0.945679 v -3.028239 h -0.54777 V 56.09259 h 1.73116 q 0.52194,0 1.16789,-0.139526 v 3.302124 q 0,0.356567 0.062,0.475423 0.062,0.118856 0.21188,0.118856 0.27905,0 0.56327,-0.299723 v -3.250448 h -0.59428 V 56.09259 h 1.79834 q 0.57878,0 1.15239,-0.139526 v 4.221964 h 0.58394 z"
         style="stroke-width:0.26458332"
         id="path6085"
         inkscape:connector-curvature="0" />
      <path
         d="m 140.84189,57.741069 q -0.11368,-0.795817 -0.71313,-1.157552 -0.59945,-0.366903 -1.20406,-0.366903 -0.1757,0 -0.28422,0.07751 -0.10852,0.07235 -0.10852,0.186035 0,0.129191 0.11369,0.222208 0.11368,0.08785 0.34623,0.201538 0.97668,0.496094 1.33842,0.707968 0.36173,0.206705 0.5581,0.382405 0.19637,0.170532 0.29973,0.434082 0.10852,0.26355 0.10852,0.563273 0,0.697632 -0.55294,1.116211 -0.55294,0.418579 -1.48828,0.418579 -1.07487,0 -1.85519,-0.501261 l -0.67696,0.532267 v -1.979207 h 0.22221 q 0.0672,0.733805 0.64596,1.173055 0.58394,0.434082 1.43143,0.434082 0.46509,0 0.46509,-0.346232 0,-0.144694 -0.0982,-0.232544 -0.093,-0.09302 -0.3359,-0.170532 -1.27641,-0.43925 -1.788,-0.89917 -0.5116,-0.465088 -0.5116,-1.007691 0,-0.713135 0.56327,-1.173055 0.56844,-0.465088 1.43661,-0.465088 0.72347,0 1.51412,0.434082 l 0.79581,-0.470255 v 1.88619 z"
         style="stroke-width:0.26458332"
         id="path6087"
         inkscape:connector-curvature="0" />
      <path
         d="m 148.47967,60.386902 h -3.35896 v -0.211874 h 0.36173 V 57.14679 q 0,-0.537435 -0.31523,-0.537435 -0.25321,0 -0.58394,0.294555 v 3.271118 h 0.36174 v 0.211874 h -3.36931 v -0.211874 h 0.65629 V 56.299296 H 141.5757 V 56.09259 h 1.96887 q 0.48576,0 1.0387,-0.139526 v 0.697632 q 0.86816,-0.63562 1.74666,-0.63562 0.60979,0 1.0542,0.304891 0.44959,0.304891 0.44959,1.069702 v 2.785359 h 0.64595 z"
         style="stroke-width:0.26458332"
         id="path6089"
         inkscape:connector-curvature="0" />
      <path
         d="m 154.02455,58.216492 h -2.75435 v 0.91984 q 0,0.43925 0.0517,0.625285 0.0517,0.186035 0.20154,0.304891 0.14986,0.118856 0.37207,0.118856 0.46509,0 0.97152,-0.310059 0.51159,-0.310058 0.90434,-0.842326 l 0.16536,0.180868 q -0.99736,1.312581 -2.41329,1.312581 -1.17305,0 -1.95854,-0.625285 -0.78031,-0.630452 -0.78031,-1.55546 0,-0.992188 0.79582,-1.658814 0.80098,-0.671793 1.99987,-0.671793 0.93535,0 1.61231,0.594279 0.68213,0.589111 0.83199,1.607137 z m -1.77767,-0.211874 v -1.224731 q 0,-0.563273 -0.46509,-0.563273 -0.51159,0 -0.51159,0.563273 v 1.224731 z"
         style="stroke-width:0.26458332"
         id="path6091"
         inkscape:connector-curvature="0" />
      <path
         d="m 158.63926,57.741069 q -0.11369,-0.795817 -0.71314,-1.157552 -0.59944,-0.366903 -1.20406,-0.366903 -0.1757,0 -0.28422,0.07751 -0.10852,0.07235 -0.10852,0.186035 0,0.129191 0.11369,0.222208 0.11369,0.08785 0.34623,0.201538 0.97669,0.496094 1.33842,0.707968 0.36174,0.206705 0.55811,0.382405 0.19637,0.170532 0.29972,0.434082 0.10852,0.26355 0.10852,0.563273 0,0.697632 -0.55294,1.116211 -0.55294,0.418579 -1.48828,0.418579 -1.07487,0 -1.85518,-0.501261 l -0.67696,0.532267 v -1.979207 h 0.22221 q 0.0672,0.733805 0.64595,1.173055 0.58394,0.434082 1.43144,0.434082 0.46509,0 0.46509,-0.346232 0,-0.144694 -0.0982,-0.232544 -0.093,-0.09302 -0.3359,-0.170532 -1.2764,-0.43925 -1.788,-0.89917 -0.5116,-0.465088 -0.5116,-1.007691 0,-0.713135 0.56328,-1.173055 0.56844,-0.465088 1.4366,-0.465088 0.72347,0 1.51412,0.434082 l 0.79582,-0.470255 v 1.88619 z"
         style="stroke-width:0.26458332"
         id="path6093"
         inkscape:connector-curvature="0" />
      <path
         d="m 163.70355,57.741069 q -0.11369,-0.795817 -0.71313,-1.157552 -0.59945,-0.366903 -1.20406,-0.366903 -0.1757,0 -0.28423,0.07751 -0.10852,0.07235 -0.10852,0.186035 0,0.129191 0.11369,0.222208 0.11369,0.08785 0.34623,0.201538 0.97669,0.496094 1.33842,0.707968 0.36174,0.206705 0.55811,0.382405 0.19637,0.170532 0.29972,0.434082 0.10852,0.26355 0.10852,0.563273 0,0.697632 -0.55293,1.116211 -0.55294,0.418579 -1.48829,0.418579 -1.07487,0 -1.85518,-0.501261 l -0.67696,0.532267 v -1.979207 h 0.22221 q 0.0672,0.733805 0.64595,1.173055 0.58395,0.434082 1.43144,0.434082 0.46509,0 0.46509,-0.346232 0,-0.144694 -0.0982,-0.232544 -0.093,-0.09302 -0.33589,-0.170532 -1.27641,-0.43925 -1.78801,-0.89917 -0.51159,-0.465088 -0.51159,-1.007691 0,-0.713135 0.56327,-1.173055 0.56844,-0.465088 1.4366,-0.465088 0.72347,0 1.51412,0.434082 l 0.79582,-0.470255 v 1.88619 z"
         style="stroke-width:0.26458332"
         id="path6095"
         inkscape:connector-curvature="0" />
    </g>
  </g>
</svg>
